# xmcd CD database file
#
# Track frame offsets:
#	188
#	30498
#	45040
#	69355
#	89645
#	113763
#	131175
#	143400
#	162300
#	177965
#	191965
#	215638
#
# Disc length: 3190 seconds
#
# Revision: 0
# Processed by: cddbd v1.5PL3 Copyright (c) Steve Scherf et al.
# Submitted via: CDex 1.51
#
DISCID=a60c740c
DTITLE=Rainer Dimmler - Spiegel der Seele
DYEAR=1998
DGENRE=New Age
TTITLE0=Lichtrosen
TTITLE1=Nachspiel Lichtrosen
TTITLE2=Saitenmagie
TTITLE3=Engel am Kreuz
TTITLE4=Orientalischer Traum I
TTITLE5=Orientalischer Traum II
TTITLE6=Improvisation
TTITLE7=Traumes Atem
TTITLE8=Sommerregen
TTITLE9=Vorspiel Feentanz
TTITLE10=Feentanz
TTITLE11=Gitarrentanz
EXTD=YEAR: 1998
EXTT0=
EXTT1=
EXTT2=
EXTT3=
EXTT4=
EXTT5=
EXTT6=
EXTT7=
EXTT8=
EXTT9=
EXTT10=
EXTT11=
PLAYORDER=
